<mxfile host="65bd71144e">
    <diagram id="5Y2W5mpgQSYwiiHN26z1" name="PÃ¡gina-1">
        <mxGraphModel dx="2265" dy="2192" grid="1" gridSize="10" guides="1" tooltips="1" connect="1" arrows="1" fold="1" page="1" pageScale="1" pageWidth="827" pageHeight="1169" math="0" shadow="0">
            <root>
                <mxCell id="0"/>
                <mxCell id="1" parent="0"/>
                <mxCell id="30" style="edgeStyle=none;html=1;entryX=0.437;entryY=0;entryDx=0;entryDy=0;entryPerimeter=0;" edge="1" parent="1" source="2" target="14">
                    <mxGeometry relative="1" as="geometry"/>
                </mxCell>
                <mxCell id="32" style="edgeStyle=none;html=1;entryX=0.005;entryY=0.646;entryDx=0;entryDy=0;entryPerimeter=0;" edge="1" parent="1" source="2" target="20">
                    <mxGeometry relative="1" as="geometry"/>
                </mxCell>
                <mxCell id="2" value="Botanico" style="swimlane;" parent="1" vertex="1">
                    <mxGeometry x="80" y="-10" width="540" height="410" as="geometry"/>
                </mxCell>
                <mxCell id="8" value="&lt;h5&gt;&lt;span style=&quot;font-size: 13px;&quot;&gt;private int licencia;&lt;/span&gt;&lt;/h5&gt;&lt;h5&gt;&lt;span style=&quot;font-size: 13px;&quot;&gt;&amp;nbsp; &amp;nbsp; &amp;nbsp; &amp;nbsp;private String nombre;&lt;/span&gt;&lt;/h5&gt;&lt;h5&gt;&lt;span style=&quot;font-size: 13px;&quot;&gt;&amp;nbsp; &amp;nbsp; &amp;nbsp; &amp;nbsp; private String apellido;&lt;/span&gt;&lt;/h5&gt;&lt;h5&gt;&lt;span style=&quot;font-size: 13px;&quot;&gt;&amp;nbsp; &amp;nbsp;private String email;&lt;/span&gt;&lt;/h5&gt;&lt;h5&gt;&lt;span style=&quot;font-size: 13px;&quot;&gt;&amp;nbsp; &amp;nbsp; &amp;nbsp; &amp;nbsp; &amp;nbsp; &amp;nbsp; &amp;nbsp; &amp;nbsp; &amp;nbsp; &amp;nbsp; private String numeroCelular;&lt;/span&gt;&lt;/h5&gt;" style="text;html=1;align=center;verticalAlign=middle;resizable=0;points=[];autosize=1;strokeColor=none;fillColor=none;" parent="2" vertex="1">
                    <mxGeometry x="-70" y="15" width="280" height="190" as="geometry"/>
                </mxCell>
                <mxCell id="18" value="&lt;h5 style=&quot;font-size: 14px;&quot;&gt;&amp;nbsp; &amp;nbsp; &amp;nbsp; &amp;nbsp; &amp;nbsp; &amp;nbsp; public String getApellido()&amp;nbsp;&lt;br style=&quot;font-size: 13px;&quot;&gt;&amp;nbsp; &amp;nbsp; &amp;nbsp; &amp;nbsp; &amp;nbsp; &amp;nbsp; &amp;nbsp; &amp;nbsp; &amp;nbsp; &amp;nbsp; &amp;nbsp; &amp;nbsp; &amp;nbsp; &amp;nbsp; &amp;nbsp; &amp;nbsp;public void setApellido(String apellido)&amp;nbsp;&lt;br style=&quot;font-size: 13px;&quot;&gt;&amp;nbsp; &amp;nbsp; &amp;nbsp; &amp;nbsp; public String getEmail()&amp;nbsp;&lt;br style=&quot;font-size: 13px;&quot;&gt;&amp;nbsp; &amp;nbsp; &amp;nbsp; &amp;nbsp; &amp;nbsp; &amp;nbsp; &amp;nbsp; &amp;nbsp; &amp;nbsp; &amp;nbsp; &amp;nbsp; &amp;nbsp;public void setEmail(String email)&amp;nbsp;&lt;br style=&quot;font-size: 13px;&quot;&gt;&amp;nbsp; &amp;nbsp; &amp;nbsp; &amp;nbsp; &amp;nbsp; &amp;nbsp; &amp;nbsp; &amp;nbsp; &amp;nbsp; &amp;nbsp; &amp;nbsp; &amp;nbsp;public String getNumeroCelular()&amp;nbsp;&lt;br style=&quot;font-size: 13px;&quot;&gt;&amp;nbsp; &amp;nbsp; &amp;nbsp; &amp;nbsp; &amp;nbsp; &amp;nbsp; &amp;nbsp; &amp;nbsp; &amp;nbsp; &amp;nbsp; &amp;nbsp; &amp;nbsp; &amp;nbsp; &amp;nbsp; &amp;nbsp; &amp;nbsp; &amp;nbsp; &amp;nbsp; &amp;nbsp; &amp;nbsp; &amp;nbsp; &amp;nbsp; &amp;nbsp; &amp;nbsp; &amp;nbsp; &amp;nbsp; &amp;nbsp;public void setNumeroCelular(String numeroCelular)&lt;/h5&gt;&lt;h5 style=&quot;font-size: 14px;&quot;&gt;&amp;nbsp; &amp;nbsp; &amp;nbsp; public int getLicencia()&lt;/h5&gt;&lt;h5 style=&quot;font-size: 14px;&quot;&gt;&amp;nbsp; &amp;nbsp; &amp;nbsp; &amp;nbsp; &amp;nbsp; &amp;nbsp; public String getNombre()&amp;nbsp;&lt;/h5&gt;" style="text;html=1;align=center;verticalAlign=middle;resizable=0;points=[];autosize=1;strokeColor=none;fillColor=none;fontSize=13;" parent="2" vertex="1">
                    <mxGeometry x="-225" y="170" width="590" height="240" as="geometry"/>
                </mxCell>
                <mxCell id="9" value="CentroBotanico" style="swimlane;fontSize=13;" parent="1" vertex="1">
                    <mxGeometry x="750" width="720" height="415" as="geometry"/>
                </mxCell>
                <mxCell id="11" value="&lt;h5&gt;&lt;span style=&quot;font-size: 13px;&quot;&gt;private List&amp;lt;Planta&amp;gt; plantas;&lt;/span&gt;&lt;/h5&gt;&lt;h5&gt;&lt;span style=&quot;font-size: 13px;&quot;&gt;&amp;nbsp; &amp;nbsp; &amp;nbsp; &amp;nbsp; &amp;nbsp; &amp;nbsp;private List&amp;lt;Botanico&amp;gt; botanicos;&lt;/span&gt;&lt;/h5&gt;&lt;h5&gt;&lt;span style=&quot;font-size: 13px;&quot;&gt;&amp;nbsp; &amp;nbsp; &amp;nbsp; &amp;nbsp; &amp;nbsp;private List&amp;lt;Cuidado&amp;gt; cuidados;&lt;/span&gt;&lt;/h5&gt;" style="text;html=1;align=center;verticalAlign=middle;resizable=0;points=[];autosize=1;strokeColor=none;fillColor=none;fontSize=14;" parent="9" vertex="1">
                    <mxGeometry x="-30" y="10" width="270" height="140" as="geometry"/>
                </mxCell>
                <mxCell id="19" value="&lt;h5&gt;&lt;font style=&quot;font-size: 13px;&quot;&gt;&amp;nbsp; public void agregarPlanta(Planta planta)&lt;/font&gt;&lt;/h5&gt;" style="text;html=1;align=center;verticalAlign=middle;resizable=0;points=[];autosize=1;strokeColor=none;fillColor=none;" parent="9" vertex="1">
                    <mxGeometry y="120" width="280" height="60" as="geometry"/>
                </mxCell>
                <mxCell id="10" value="&lt;h5&gt;&lt;br&gt;&lt;/h5&gt;" style="text;html=1;align=center;verticalAlign=middle;resizable=0;points=[];autosize=1;strokeColor=none;fillColor=none;fontSize=13;" parent="9" vertex="1">
                    <mxGeometry x="30" y="140" width="20" height="60" as="geometry"/>
                </mxCell>
                <mxCell id="20" value="&lt;h5 style=&quot;&quot;&gt;&lt;span style=&quot;font-size: 13px;&quot;&gt;&amp;nbsp; &amp;nbsp;pu&lt;/span&gt;&lt;font style=&quot;font-size: 13px;&quot;&gt;b&lt;/font&gt;&lt;span style=&quot;font-size: 13px;&quot;&gt;lic void agregarBotanico(Botanico botanico)&lt;/span&gt;&lt;/h5&gt;" style="text;html=1;align=center;verticalAlign=middle;resizable=0;points=[];autosize=1;strokeColor=none;fillColor=none;fontSize=13;" parent="9" vertex="1">
                    <mxGeometry x="-5" y="150" width="340" height="70" as="geometry"/>
                </mxCell>
                <mxCell id="22" value="&lt;h5&gt;&lt;font style=&quot;font-size: 13px;&quot;&gt;public void programarCuidado(String area, String fechaHora, List&amp;lt;Planta&amp;gt; plantas, List&amp;lt;Botanico&amp;gt; botanicos)&lt;/font&gt;&lt;/h5&gt;" style="text;html=1;align=center;verticalAlign=middle;resizable=0;points=[];autosize=1;strokeColor=none;fillColor=none;fontSize=13;" parent="9" vertex="1">
                    <mxGeometry x="10" y="190" width="710" height="70" as="geometry"/>
                </mxCell>
                <mxCell id="23" value="&lt;h5&gt;&lt;font style=&quot;font-size: 13px;&quot;&gt;public void iniciarCuidado(String area, String fechaHora)&lt;/font&gt;&lt;/h5&gt;" style="text;html=1;align=center;verticalAlign=middle;resizable=0;points=[];autosize=1;strokeColor=none;fillColor=none;fontSize=13;" parent="9" vertex="1">
                    <mxGeometry x="10" y="230" width="380" height="70" as="geometry"/>
                </mxCell>
                <mxCell id="24" value="&lt;h5&gt;&lt;font style=&quot;font-size: 13px;&quot;&gt;public void finalizarCuidado(String area, String fechaHora, String resultado)&lt;/font&gt;&lt;/h5&gt;" style="text;html=1;align=center;verticalAlign=middle;resizable=0;points=[];autosize=1;strokeColor=none;fillColor=none;fontSize=13;" parent="9" vertex="1">
                    <mxGeometry x="10" y="275" width="500" height="70" as="geometry"/>
                </mxCell>
                <mxCell id="25" value="&lt;h5 style=&quot;&quot;&gt;&lt;font style=&quot;font-size: 13px;&quot;&gt;public void aplazarCuidado(String area, String fechaHora)&lt;/font&gt;&lt;/h5&gt;" style="text;html=1;align=center;verticalAlign=middle;resizable=0;points=[];autosize=1;strokeColor=none;fillColor=none;fontSize=13;" parent="9" vertex="1">
                    <mxGeometry x="10" y="310" width="390" height="70" as="geometry"/>
                </mxCell>
                <mxCell id="26" value="&lt;h5 style=&quot;&quot;&gt;&lt;font style=&quot;font-size: 13px;&quot;&gt;public void mostrarEstadisticasCuidados()&lt;/font&gt;&lt;/h5&gt;" style="text;html=1;align=center;verticalAlign=middle;resizable=0;points=[];autosize=1;strokeColor=none;fillColor=none;fontSize=13;" parent="9" vertex="1">
                    <mxGeometry x="10" y="345" width="290" height="70" as="geometry"/>
                </mxCell>
                <mxCell id="12" value="Cuidado" style="swimlane;fontSize=13;" parent="1" vertex="1">
                    <mxGeometry x="90" y="1020" width="735" height="560" as="geometry"/>
                </mxCell>
                <mxCell id="13" value="&lt;h5&gt;&lt;span style=&quot;font-size: 13px;&quot;&gt;private String area;&lt;/span&gt;&lt;/h5&gt;&lt;h5&gt;&lt;span style=&quot;font-size: 13px;&quot;&gt;&amp;nbsp; &amp;nbsp; &amp;nbsp; &amp;nbsp; &amp;nbsp; &amp;nbsp;private String fechaHora;&lt;/span&gt;&lt;/h5&gt;&lt;h5&gt;&lt;span style=&quot;font-size: 13px;&quot;&gt;&amp;nbsp; &amp;nbsp; &amp;nbsp; &amp;nbsp; &amp;nbsp; &amp;nbsp; &amp;nbsp; &amp;nbsp; &amp;nbsp; private List&amp;lt;Planta&amp;gt; plantas;&lt;/span&gt;&lt;/h5&gt;&lt;h5&gt;&lt;span style=&quot;font-size: 13px;&quot;&gt;&amp;nbsp; &amp;nbsp; &amp;nbsp; &amp;nbsp; &amp;nbsp; &amp;nbsp; &amp;nbsp; &amp;nbsp; &amp;nbsp; &amp;nbsp; &amp;nbsp; &amp;nbsp; &amp;nbsp; &amp;nbsp; private List&amp;lt;Botanico&amp;gt; botanicos;&lt;/span&gt;&lt;/h5&gt;&lt;h5&gt;&lt;span style=&quot;font-size: 13px;&quot;&gt;&amp;nbsp; &amp;nbsp; &amp;nbsp; &amp;nbsp; &amp;nbsp; private String resultado;&lt;/span&gt;&lt;/h5&gt;&lt;h5&gt;&lt;span style=&quot;font-size: 13px;&quot;&gt;&amp;nbsp; &amp;nbsp; &amp;nbsp; private String estado;&lt;/span&gt;&lt;/h5&gt;" style="text;html=1;align=center;verticalAlign=middle;resizable=0;points=[];autosize=1;strokeColor=none;fillColor=none;fontSize=13;" parent="12" vertex="1">
                    <mxGeometry x="-85" y="10" width="330" height="230" as="geometry"/>
                </mxCell>
                <mxCell id="27" value="&lt;h5 style=&quot;&quot;&gt;&lt;font style=&quot;font-size: 13px;&quot;&gt;&amp;nbsp;public String getArea()&amp;nbsp; &amp;nbsp; &amp;nbsp;&lt;/font&gt;&lt;/h5&gt;&lt;h5 style=&quot;&quot;&gt;&lt;font style=&quot;font-size: 13px;&quot;&gt;&amp;nbsp; &amp;nbsp; &amp;nbsp; &amp;nbsp; public String getFechaHora()&lt;/font&gt;&lt;/h5&gt;&lt;h5 style=&quot;&quot;&gt;&lt;font style=&quot;font-size: 13px;&quot;&gt;&amp;nbsp; &amp;nbsp; &amp;nbsp; &amp;nbsp; &amp;nbsp; &amp;nbsp; &amp;nbsp; &amp;nbsp;public List&amp;lt;Planta&amp;gt; getPlantas()&amp;nbsp; &amp;nbsp;&lt;/font&gt;&lt;/h5&gt;&lt;h5 style=&quot;&quot;&gt;&lt;font style=&quot;font-size: 13px;&quot;&gt;&amp;nbsp; &amp;nbsp; &amp;nbsp; &amp;nbsp; &amp;nbsp; &amp;nbsp; &amp;nbsp; &amp;nbsp; &amp;nbsp; &amp;nbsp; &amp;nbsp; public List&amp;lt;Botanico&amp;gt; getBotanicos()&lt;/font&gt;&lt;/h5&gt;&lt;h5 style=&quot;&quot;&gt;&lt;font style=&quot;font-size: 13px;&quot;&gt;&amp;nbsp; &amp;nbsp; &amp;nbsp; &amp;nbsp; &amp;nbsp; public String getResultado()&amp;nbsp; &amp;nbsp; &amp;nbsp;&lt;/font&gt;&lt;/h5&gt;&lt;h5 style=&quot;&quot;&gt;&lt;font style=&quot;font-size: 13px;&quot;&gt;&amp;nbsp; &amp;nbsp; public String getEstado()&amp;nbsp; &amp;nbsp;&amp;nbsp;&lt;/font&gt;&lt;/h5&gt;&lt;h5 style=&quot;&quot;&gt;&lt;font style=&quot;font-size: 13px;&quot;&gt;&amp;nbsp; &amp;nbsp; &amp;nbsp; &amp;nbsp; &amp;nbsp; &amp;nbsp; &amp;nbsp; &amp;nbsp; &amp;nbsp; &amp;nbsp; &amp;nbsp; &amp;nbsp; &amp;nbsp; &amp;nbsp; &amp;nbsp; &amp;nbsp; &amp;nbsp; &amp;nbsp; &amp;nbsp; &amp;nbsp; &amp;nbsp; &amp;nbsp; &amp;nbsp; &amp;nbsp; &amp;nbsp; &amp;nbsp; &amp;nbsp; &amp;nbsp; &amp;nbsp; &amp;nbsp; &amp;nbsp; &amp;nbsp; &amp;nbsp; &amp;nbsp; &amp;nbsp; &amp;nbsp; &amp;nbsp; public void iniciarCuidado() {&amp;nbsp; &amp;nbsp; &amp;nbsp; &amp;nbsp; &amp;nbsp;estado = &quot;EN PROCESO&quot;;&amp;nbsp; &amp;nbsp; &amp;nbsp;}&amp;nbsp;&amp;nbsp;&lt;/font&gt;&lt;/h5&gt;&lt;h5 style=&quot;&quot;&gt;&lt;font style=&quot;font-size: 13px;&quot;&gt;&amp;nbsp; &amp;nbsp; &amp;nbsp; &amp;nbsp; &amp;nbsp; &amp;nbsp; &amp;nbsp; &amp;nbsp; &amp;nbsp; &amp;nbsp; &amp;nbsp; &amp;nbsp; &amp;nbsp; &amp;nbsp; &amp;nbsp; &amp;nbsp; &amp;nbsp; &amp;nbsp; &amp;nbsp; &amp;nbsp; &amp;nbsp; &amp;nbsp; &amp;nbsp; &amp;nbsp; &amp;nbsp; &amp;nbsp; &amp;nbsp; &amp;nbsp; &amp;nbsp; &amp;nbsp; &amp;nbsp; &amp;nbsp; &amp;nbsp; &amp;nbsp; &amp;nbsp; &amp;nbsp; &amp;nbsp; &amp;nbsp; &amp;nbsp; &amp;nbsp; &amp;nbsp; &amp;nbsp; &amp;nbsp; &amp;nbsp; &amp;nbsp; &amp;nbsp; &amp;nbsp; &amp;nbsp; &amp;nbsp; &amp;nbsp; &amp;nbsp; &amp;nbsp; &amp;nbsp; &amp;nbsp; &amp;nbsp; &amp;nbsp; &amp;nbsp; &amp;nbsp; &amp;nbsp; &amp;nbsp; &amp;nbsp; &amp;nbsp; &amp;nbsp; &amp;nbsp; &amp;nbsp; &amp;nbsp; &amp;nbsp; &amp;nbsp; &amp;nbsp; &amp;nbsp; &amp;nbsp; &amp;nbsp; &amp;nbsp; &amp;nbsp; &amp;nbsp; &amp;nbsp; &amp;nbsp; &amp;nbsp; &amp;nbsp; &amp;nbsp; &amp;nbsp; public void finalizarCuidado(String resultado) {&amp;nbsp; &amp;nbsp; &amp;nbsp; &amp;nbsp; &amp;nbsp;estado = &quot;FINALIZADO&quot;;&amp;nbsp; &amp;nbsp; &amp;nbsp; &amp;nbsp; &amp;nbsp;this.resultado = resultado;&amp;nbsp; &amp;nbsp; &amp;nbsp;}&amp;nbsp;&amp;nbsp;&lt;/font&gt;&lt;/h5&gt;&lt;h5 style=&quot;&quot;&gt;&lt;font style=&quot;font-size: 13px;&quot;&gt;&amp;nbsp; &amp;nbsp; &amp;nbsp; &amp;nbsp; &amp;nbsp; &amp;nbsp; &amp;nbsp; &amp;nbsp; &amp;nbsp; &amp;nbsp; &amp;nbsp; &amp;nbsp; &amp;nbsp; &amp;nbsp; &amp;nbsp; &amp;nbsp; &amp;nbsp; &amp;nbsp; &amp;nbsp; &amp;nbsp; &amp;nbsp; &amp;nbsp; &amp;nbsp; &amp;nbsp; &amp;nbsp; &amp;nbsp; &amp;nbsp; &amp;nbsp; &amp;nbsp; &amp;nbsp; &amp;nbsp; &amp;nbsp; &amp;nbsp; &amp;nbsp; public void aplazarCuidado() {&amp;nbsp; &amp;nbsp; &amp;nbsp; &amp;nbsp; &amp;nbsp;estado = &quot;APLAZADO&quot;;&amp;nbsp; &amp;nbsp; &amp;nbsp;}&lt;/font&gt;&lt;/h5&gt;" style="text;html=1;align=center;verticalAlign=middle;resizable=0;points=[];autosize=1;strokeColor=none;fillColor=none;fontSize=13;" parent="12" vertex="1">
                    <mxGeometry x="-535" y="210" width="1270" height="330" as="geometry"/>
                </mxCell>
                <mxCell id="33" style="edgeStyle=none;html=1;entryX=0.601;entryY=-0.005;entryDx=0;entryDy=0;entryPerimeter=0;" edge="1" parent="1" source="14" target="12">
                    <mxGeometry relative="1" as="geometry"/>
                </mxCell>
                <mxCell id="14" value="Planta" style="swimlane;fontSize=13;" parent="1" vertex="1">
                    <mxGeometry x="430" y="510" width="710" height="420" as="geometry"/>
                </mxCell>
                <mxCell id="28" value="&lt;h5 style=&quot;&quot;&gt;&lt;font style=&quot;font-size: 13px;&quot;&gt;&amp;nbsp; &amp;nbsp; &amp;nbsp; &amp;nbsp; &amp;nbsp; private String nombre;&amp;nbsp; &amp;nbsp;&amp;nbsp;&lt;/font&gt;&lt;/h5&gt;&lt;h5 style=&quot;&quot;&gt;&lt;font style=&quot;font-size: 13px;&quot;&gt;private String tipo;&lt;/font&gt;&lt;/h5&gt;" style="text;html=1;align=center;verticalAlign=middle;resizable=0;points=[];autosize=1;strokeColor=none;fillColor=none;fontSize=13;" parent="14" vertex="1">
                    <mxGeometry x="-16" y="10" width="210" height="100" as="geometry"/>
                </mxCell>
                <mxCell id="29" value="&lt;h5 style=&quot;&quot;&gt;&lt;font style=&quot;font-size: 13px;&quot;&gt;&amp;nbsp; &amp;nbsp; &amp;nbsp; &amp;nbsp; &amp;nbsp; &amp;nbsp; public String getNombre()&amp;nbsp; &amp;nbsp; &amp;nbsp;&amp;nbsp;&lt;/font&gt;&lt;/h5&gt;&lt;h5 style=&quot;&quot;&gt;&lt;font style=&quot;font-size: 13px;&quot;&gt;&amp;nbsp;public String getTipo()&amp;nbsp;&lt;/font&gt;&lt;/h5&gt;" style="text;html=1;align=center;verticalAlign=middle;resizable=0;points=[];autosize=1;strokeColor=none;fillColor=none;fontSize=13;" parent="14" vertex="1">
                    <mxGeometry x="-20" y="75" width="250" height="100" as="geometry"/>
                </mxCell>
                <mxCell id="31" style="edgeStyle=none;html=1;entryX=0.5;entryY=0;entryDx=0;entryDy=0;" edge="1" parent="1" source="26" target="14">
                    <mxGeometry relative="1" as="geometry"/>
                </mxCell>
            </root>
        </mxGraphModel>
    </diagram>
</mxfile>